<mxfile host="Electron" modified="2023-11-01T16:38:02.286Z" agent="Mozilla/5.0 (X11; Linux x86_64) AppleWebKit/537.36 (KHTML, like Gecko) draw.io/22.0.3 Chrome/114.0.5735.289 Electron/25.8.4 Safari/537.36" etag="LciQ_CCoQKNOREtUAvcq" version="22.0.3" type="device" pages="2">
  <diagram id="kVEl0o6V9vzlHMaTCjzf" name="Neural_Network_scheme">
    <mxGraphModel dx="1378" dy="963" grid="1" gridSize="10" guides="1" tooltips="1" connect="1" arrows="1" fold="1" page="1" pageScale="1" pageWidth="1169" pageHeight="827" math="0" shadow="0">
      <root>
        <mxCell id="0" />
        <mxCell id="1" parent="0" />
        <mxCell id="SYQy1KJUXBrkszPhO71--144" value="" style="shape=flexArrow;endArrow=classic;html=1;rounded=0;fontFamily=Helvetica;fontSize=12;fontColor=default;exitX=0.588;exitY=0.003;exitDx=0;exitDy=0;exitPerimeter=0;" parent="1" source="SYQy1KJUXBrkszPhO71--110" edge="1">
          <mxGeometry width="50" height="50" relative="1" as="geometry">
            <mxPoint x="990" y="449.76" as="sourcePoint" />
            <mxPoint x="1070" y="449.76" as="targetPoint" />
          </mxGeometry>
        </mxCell>
        <mxCell id="SYQy1KJUXBrkszPhO71--110" value="" style="rounded=0;whiteSpace=wrap;html=1;direction=south;fillColor=#CCFFE7;strokeColor=#ae4132;opacity=60;" parent="1" vertex="1">
          <mxGeometry x="700" y="120" width="310" height="560" as="geometry" />
        </mxCell>
        <mxCell id="SYQy1KJUXBrkszPhO71--87" value="" style="rounded=0;whiteSpace=wrap;html=1;direction=south;fillColor=#C4BB89;strokeColor=#b46504;opacity=60;" parent="1" vertex="1">
          <mxGeometry x="390" y="120" width="310" height="560" as="geometry" />
        </mxCell>
        <mxCell id="SYQy1KJUXBrkszPhO71--120" value="" style="shape=flexArrow;endArrow=classic;html=1;fontSize=12;exitX=0.5;exitY=1;exitDx=0;exitDy=0;" parent="1" edge="1">
          <mxGeometry width="50" height="50" relative="1" as="geometry">
            <mxPoint x="949.76" y="250" as="sourcePoint" />
            <mxPoint x="950" y="320.08000000000004" as="targetPoint" />
          </mxGeometry>
        </mxCell>
        <mxCell id="55" value="" style="rounded=0;whiteSpace=wrap;html=1;direction=south;fillColor=#CDE8C5;fontColor=#ffffff;strokeColor=#314354;opacity=60;" parent="1" vertex="1">
          <mxGeometry x="100" y="120" width="290" height="560" as="geometry" />
        </mxCell>
        <mxCell id="2" value="Neuron A1" style="ellipse;whiteSpace=wrap;html=1;aspect=fixed;fillColor=#0B5C3B;fontColor=#ffffff;strokeColor=#000000;" parent="1" vertex="1">
          <mxGeometry x="180" y="310" width="80" height="80" as="geometry" />
        </mxCell>
        <mxCell id="3" value="Neuron A2" style="ellipse;whiteSpace=wrap;html=1;aspect=fixed;fillColor=#6059C2;fontColor=#ffffff;strokeColor=#000000;" parent="1" vertex="1">
          <mxGeometry x="180" y="430" width="80" height="80" as="geometry" />
        </mxCell>
        <mxCell id="4" value="Neuron A3" style="ellipse;whiteSpace=wrap;html=1;aspect=fixed;fillColor=#66482D;fontColor=#ffffff;strokeColor=#000000;" parent="1" vertex="1">
          <mxGeometry x="180" y="550" width="80" height="80" as="geometry" />
        </mxCell>
        <mxCell id="10" value="" style="endArrow=classic;html=1;exitX=1;exitY=0.5;exitDx=0;exitDy=0;endFill=1;" parent="1" edge="1">
          <mxGeometry width="50" height="50" relative="1" as="geometry">
            <mxPoint x="110" y="399.9999999999998" as="sourcePoint" />
            <mxPoint x="180" y="350" as="targetPoint" />
          </mxGeometry>
        </mxCell>
        <mxCell id="27" value="&lt;font color=&quot;#139c64&quot;&gt;w0_in(0)&lt;/font&gt;" style="edgeLabel;html=1;align=center;verticalAlign=middle;resizable=0;points=[];fontSize=12;" parent="10" vertex="1" connectable="0">
          <mxGeometry x="-0.4014" relative="1" as="geometry">
            <mxPoint x="9" y="-15" as="offset" />
          </mxGeometry>
        </mxCell>
        <mxCell id="11" value="" style="endArrow=classic;html=1;entryX=0;entryY=0.5;entryDx=0;entryDy=0;endFill=1;" parent="1" target="3" edge="1">
          <mxGeometry width="50" height="50" relative="1" as="geometry">
            <mxPoint x="110" y="400" as="sourcePoint" />
            <mxPoint x="190" y="360" as="targetPoint" />
          </mxGeometry>
        </mxCell>
        <mxCell id="29" value="&lt;font color=&quot;#6059c2&quot;&gt;w0_in(2)&lt;/font&gt;" style="edgeLabel;html=1;align=center;verticalAlign=middle;resizable=0;points=[];fontSize=12;" parent="11" vertex="1" connectable="0">
          <mxGeometry x="0.2302" relative="1" as="geometry">
            <mxPoint x="7" y="7" as="offset" />
          </mxGeometry>
        </mxCell>
        <mxCell id="12" value="" style="endArrow=classic;html=1;entryX=0;entryY=0.5;entryDx=0;entryDy=0;exitX=1;exitY=0.5;exitDx=0;exitDy=0;endFill=1;" parent="1" target="4" edge="1">
          <mxGeometry width="50" height="50" relative="1" as="geometry">
            <mxPoint x="110" y="399.9999999999998" as="sourcePoint" />
            <mxPoint x="180" y="500" as="targetPoint" />
          </mxGeometry>
        </mxCell>
        <mxCell id="31" value="&lt;font color=&quot;#66482d&quot;&gt;w0_in(4)&lt;/font&gt;" style="edgeLabel;html=1;align=center;verticalAlign=middle;resizable=0;points=[];fontSize=12;" parent="12" vertex="1" connectable="0">
          <mxGeometry x="-0.1266" y="2" relative="1" as="geometry">
            <mxPoint x="18" y="48" as="offset" />
          </mxGeometry>
        </mxCell>
        <mxCell id="13" value="" style="endArrow=classicThin;html=1;endFill=1;entryX=0;entryY=0.5;entryDx=0;entryDy=0;" parent="1" target="4" edge="1">
          <mxGeometry width="50" height="50" relative="1" as="geometry">
            <mxPoint x="110" y="530" as="sourcePoint" />
            <mxPoint x="100" y="590" as="targetPoint" />
          </mxGeometry>
        </mxCell>
        <mxCell id="32" value="&lt;font color=&quot;#66482d&quot;&gt;w0_in(5)&lt;/font&gt;" style="edgeLabel;html=1;align=center;verticalAlign=middle;resizable=0;points=[];fontSize=12;" parent="13" vertex="1" connectable="0">
          <mxGeometry x="0.0783" y="1" relative="1" as="geometry">
            <mxPoint y="2" as="offset" />
          </mxGeometry>
        </mxCell>
        <mxCell id="14" value="" style="endArrow=classic;html=1;entryX=0;entryY=0.5;entryDx=0;entryDy=0;endFill=1;" parent="1" target="3" edge="1">
          <mxGeometry width="50" height="50" relative="1" as="geometry">
            <mxPoint x="110" y="530" as="sourcePoint" />
            <mxPoint x="110" y="530" as="targetPoint" />
          </mxGeometry>
        </mxCell>
        <mxCell id="30" value="&lt;font color=&quot;#6059c2&quot;&gt;w0_in(3)&lt;/font&gt;" style="edgeLabel;html=1;align=center;verticalAlign=middle;resizable=0;points=[];fontSize=12;" parent="14" vertex="1" connectable="0">
          <mxGeometry x="0.299" y="-1" relative="1" as="geometry">
            <mxPoint x="4" y="-2" as="offset" />
          </mxGeometry>
        </mxCell>
        <mxCell id="15" value="" style="endArrow=classic;html=1;entryX=0;entryY=0.5;entryDx=0;entryDy=0;endFill=1;exitX=1;exitY=0.5;exitDx=0;exitDy=0;" parent="1" target="2" edge="1">
          <mxGeometry width="50" height="50" relative="1" as="geometry">
            <mxPoint x="110" y="530" as="sourcePoint" />
            <mxPoint x="110" y="538" as="targetPoint" />
          </mxGeometry>
        </mxCell>
        <mxCell id="28" value="&lt;font color=&quot;#139c64&quot;&gt;w0_in(1)&lt;/font&gt;" style="edgeLabel;html=1;align=center;verticalAlign=middle;resizable=0;points=[];fontSize=12;" parent="15" vertex="1" connectable="0">
          <mxGeometry x="-0.2961" y="1" relative="1" as="geometry">
            <mxPoint x="36" y="-66" as="offset" />
          </mxGeometry>
        </mxCell>
        <mxCell id="57" value="" style="shape=flexArrow;endArrow=classic;html=1;fontSize=12;exitX=0.5;exitY=1;exitDx=0;exitDy=0;" parent="1" edge="1">
          <mxGeometry width="50" height="50" relative="1" as="geometry">
            <mxPoint x="229.76" y="250" as="sourcePoint" />
            <mxPoint x="229.76" y="310" as="targetPoint" />
          </mxGeometry>
        </mxCell>
        <mxCell id="58" value="&lt;font color=&quot;#000000&quot;&gt;Layer0&lt;/font&gt;" style="text;html=1;align=center;verticalAlign=middle;resizable=0;points=[];autosize=1;strokeColor=none;fillColor=none;fontStyle=1" parent="1" vertex="1">
          <mxGeometry x="110" y="120" width="60" height="30" as="geometry" />
        </mxCell>
        <mxCell id="SYQy1KJUXBrkszPhO71--103" style="rounded=0;orthogonalLoop=1;jettySize=auto;html=1;exitX=0.075;exitY=-0.002;exitDx=0;exitDy=0;entryX=0;entryY=0.5;entryDx=0;entryDy=0;exitPerimeter=0;" parent="1" source="SYQy1KJUXBrkszPhO71--67" target="SYQy1KJUXBrkszPhO71--88" edge="1">
          <mxGeometry relative="1" as="geometry" />
        </mxCell>
        <mxCell id="SYQy1KJUXBrkszPhO71--127" value="&lt;font color=&quot;#139c64&quot;&gt;w1_in(0)&lt;/font&gt;" style="edgeLabel;html=1;align=center;verticalAlign=middle;resizable=0;points=[];fontSize=12;fontFamily=Helvetica;fontColor=default;" parent="SYQy1KJUXBrkszPhO71--103" vertex="1" connectable="0">
          <mxGeometry x="-0.0157" relative="1" as="geometry">
            <mxPoint as="offset" />
          </mxGeometry>
        </mxCell>
        <mxCell id="SYQy1KJUXBrkszPhO71--106" style="rounded=0;orthogonalLoop=1;jettySize=auto;html=1;exitX=0.5;exitY=0;exitDx=0;exitDy=0;" parent="1" source="SYQy1KJUXBrkszPhO71--67" edge="1">
          <mxGeometry relative="1" as="geometry">
            <mxPoint x="480" y="390" as="targetPoint" />
          </mxGeometry>
        </mxCell>
        <mxCell id="SYQy1KJUXBrkszPhO71--131" value="&lt;font color=&quot;#139c64&quot;&gt;w1_in(1)&lt;/font&gt;" style="edgeLabel;html=1;align=center;verticalAlign=middle;resizable=0;points=[];fontSize=12;fontFamily=Helvetica;fontColor=default;" parent="SYQy1KJUXBrkszPhO71--106" vertex="1" connectable="0">
          <mxGeometry x="0.2584" y="1" relative="1" as="geometry">
            <mxPoint y="-7" as="offset" />
          </mxGeometry>
        </mxCell>
        <mxCell id="SYQy1KJUXBrkszPhO71--107" style="rounded=0;orthogonalLoop=1;jettySize=auto;html=1;exitX=0.5;exitY=0;exitDx=0;exitDy=0;entryX=0;entryY=0.5;entryDx=0;entryDy=0;" parent="1" source="SYQy1KJUXBrkszPhO71--67" target="SYQy1KJUXBrkszPhO71--90" edge="1">
          <mxGeometry relative="1" as="geometry" />
        </mxCell>
        <mxCell id="SYQy1KJUXBrkszPhO71--67" value="rom_sigmoid" style="rounded=0;whiteSpace=wrap;html=1;direction=south;" parent="1" vertex="1">
          <mxGeometry x="290" y="330" width="90" height="270" as="geometry" />
        </mxCell>
        <mxCell id="SYQy1KJUXBrkszPhO71--72" style="edgeStyle=orthogonalEdgeStyle;rounded=0;orthogonalLoop=1;jettySize=auto;html=1;exitX=1;exitY=0.5;exitDx=0;exitDy=0;entryX=0.074;entryY=1.022;entryDx=0;entryDy=0;entryPerimeter=0;" parent="1" source="2" target="SYQy1KJUXBrkszPhO71--67" edge="1">
          <mxGeometry relative="1" as="geometry" />
        </mxCell>
        <mxCell id="SYQy1KJUXBrkszPhO71--78" style="edgeStyle=orthogonalEdgeStyle;rounded=0;orthogonalLoop=1;jettySize=auto;html=1;exitX=1;exitY=0.5;exitDx=0;exitDy=0;entryX=0.517;entryY=1.033;entryDx=0;entryDy=0;entryPerimeter=0;" parent="1" source="3" target="SYQy1KJUXBrkszPhO71--67" edge="1">
          <mxGeometry relative="1" as="geometry" />
        </mxCell>
        <mxCell id="SYQy1KJUXBrkszPhO71--80" style="edgeStyle=orthogonalEdgeStyle;rounded=0;orthogonalLoop=1;jettySize=auto;html=1;exitX=1;exitY=0.5;exitDx=0;exitDy=0;entryX=0.964;entryY=1.04;entryDx=0;entryDy=0;entryPerimeter=0;" parent="1" source="4" target="SYQy1KJUXBrkszPhO71--67" edge="1">
          <mxGeometry relative="1" as="geometry" />
        </mxCell>
        <mxCell id="SYQy1KJUXBrkszPhO71--82" value="SigmoidCtrl_proc" style="whiteSpace=wrap;html=1;aspect=fixed;fontSize=12;" parent="1" vertex="1">
          <mxGeometry x="290" y="160" width="100" height="100" as="geometry" />
        </mxCell>
        <mxCell id="SYQy1KJUXBrkszPhO71--83" value="" style="shape=flexArrow;endArrow=classic;html=1;fontSize=12;exitX=0.5;exitY=1;exitDx=0;exitDy=0;" parent="1" source="SYQy1KJUXBrkszPhO71--82" edge="1">
          <mxGeometry width="50" height="50" relative="1" as="geometry">
            <mxPoint x="340" y="289.9999999999998" as="sourcePoint" />
            <mxPoint x="340" y="330" as="targetPoint" />
          </mxGeometry>
        </mxCell>
        <mxCell id="SYQy1KJUXBrkszPhO71--86" value="LayerCtrl_proc" style="whiteSpace=wrap;html=1;aspect=fixed;fontSize=12;" parent="1" vertex="1">
          <mxGeometry x="180" y="160" width="100" height="100" as="geometry" />
        </mxCell>
        <mxCell id="SYQy1KJUXBrkszPhO71--88" value="Neuron B1" style="ellipse;whiteSpace=wrap;html=1;aspect=fixed;fillColor=#0B5C3B;fontColor=#ffffff;strokeColor=#000000;" parent="1" vertex="1">
          <mxGeometry x="480" y="350" width="80" height="80" as="geometry" />
        </mxCell>
        <mxCell id="SYQy1KJUXBrkszPhO71--90" value="Neuron B2" style="ellipse;whiteSpace=wrap;html=1;aspect=fixed;fillColor=#6059C2;fontColor=#ffffff;strokeColor=#000000;" parent="1" vertex="1">
          <mxGeometry x="480" y="480" width="80" height="80" as="geometry" />
        </mxCell>
        <mxCell id="SYQy1KJUXBrkszPhO71--91" value="" style="shape=flexArrow;endArrow=classic;html=1;fontSize=12;exitX=0.5;exitY=1;exitDx=0;exitDy=0;entryX=0.393;entryY=0.581;entryDx=0;entryDy=0;entryPerimeter=0;" parent="1" edge="1">
          <mxGeometry width="50" height="50" relative="1" as="geometry">
            <mxPoint x="519.76" y="250" as="sourcePoint" />
            <mxPoint x="519.8900000000001" y="340.0799999999999" as="targetPoint" />
          </mxGeometry>
        </mxCell>
        <mxCell id="SYQy1KJUXBrkszPhO71--92" value="&lt;font color=&quot;#000000&quot;&gt;&lt;b&gt;Layer1&lt;/b&gt;&lt;/font&gt;" style="text;html=1;align=center;verticalAlign=middle;resizable=0;points=[];autosize=1;strokeColor=none;fillColor=none;" parent="1" vertex="1">
          <mxGeometry x="400" y="120" width="60" height="30" as="geometry" />
        </mxCell>
        <mxCell id="SYQy1KJUXBrkszPhO71--121" style="rounded=0;orthogonalLoop=1;jettySize=auto;html=1;exitX=0.25;exitY=0;exitDx=0;exitDy=0;entryX=0;entryY=0.5;entryDx=0;entryDy=0;" parent="1" source="SYQy1KJUXBrkszPhO71--93" target="SYQy1KJUXBrkszPhO71--112" edge="1">
          <mxGeometry relative="1" as="geometry" />
        </mxCell>
        <mxCell id="SYQy1KJUXBrkszPhO71--136" value="&lt;font color=&quot;#139c64&quot;&gt;w2_in(0)&lt;/font&gt;" style="edgeLabel;html=1;align=center;verticalAlign=middle;resizable=0;points=[];fontSize=12;fontFamily=Helvetica;fontColor=default;" parent="SYQy1KJUXBrkszPhO71--121" vertex="1" connectable="0">
          <mxGeometry x="-0.0986" y="1" relative="1" as="geometry">
            <mxPoint as="offset" />
          </mxGeometry>
        </mxCell>
        <mxCell id="SYQy1KJUXBrkszPhO71--122" style="rounded=0;orthogonalLoop=1;jettySize=auto;html=1;exitX=0.75;exitY=0;exitDx=0;exitDy=0;entryX=0;entryY=0.5;entryDx=0;entryDy=0;" parent="1" source="SYQy1KJUXBrkszPhO71--93" target="SYQy1KJUXBrkszPhO71--112" edge="1">
          <mxGeometry relative="1" as="geometry" />
        </mxCell>
        <mxCell id="SYQy1KJUXBrkszPhO71--93" value="rom_sigmoid" style="rounded=0;whiteSpace=wrap;html=1;direction=south;" parent="1" vertex="1">
          <mxGeometry x="590" y="330" width="90" height="270" as="geometry" />
        </mxCell>
        <mxCell id="SYQy1KJUXBrkszPhO71--94" style="edgeStyle=orthogonalEdgeStyle;rounded=0;orthogonalLoop=1;jettySize=auto;html=1;exitX=1;exitY=0.5;exitDx=0;exitDy=0;entryX=0.222;entryY=1.003;entryDx=0;entryDy=0;entryPerimeter=0;" parent="1" source="SYQy1KJUXBrkszPhO71--88" target="SYQy1KJUXBrkszPhO71--93" edge="1">
          <mxGeometry relative="1" as="geometry">
            <mxPoint x="588.02" y="389.98" as="targetPoint" />
          </mxGeometry>
        </mxCell>
        <mxCell id="SYQy1KJUXBrkszPhO71--96" style="edgeStyle=orthogonalEdgeStyle;rounded=0;orthogonalLoop=1;jettySize=auto;html=1;exitX=1;exitY=0.5;exitDx=0;exitDy=0;entryX=0.706;entryY=1.004;entryDx=0;entryDy=0;entryPerimeter=0;" parent="1" source="SYQy1KJUXBrkszPhO71--90" target="SYQy1KJUXBrkszPhO71--93" edge="1">
          <mxGeometry relative="1" as="geometry">
            <mxPoint x="586.4000000000001" y="520.2799999999997" as="targetPoint" />
          </mxGeometry>
        </mxCell>
        <mxCell id="SYQy1KJUXBrkszPhO71--97" value="SigmoidCtrl_proc" style="whiteSpace=wrap;html=1;aspect=fixed;fontSize=12;" parent="1" vertex="1">
          <mxGeometry x="590" y="160" width="100" height="100" as="geometry" />
        </mxCell>
        <mxCell id="SYQy1KJUXBrkszPhO71--98" value="" style="shape=flexArrow;endArrow=classic;html=1;fontSize=12;exitX=0.5;exitY=1;exitDx=0;exitDy=0;entryX=0.375;entryY=0.2;entryDx=0;entryDy=0;entryPerimeter=0;" parent="1" source="SYQy1KJUXBrkszPhO71--97" target="SYQy1KJUXBrkszPhO71--87" edge="1">
          <mxGeometry width="50" height="50" relative="1" as="geometry">
            <mxPoint x="629.5" y="240" as="sourcePoint" />
            <mxPoint x="609.9599999999998" y="319.9200000000001" as="targetPoint" />
          </mxGeometry>
        </mxCell>
        <mxCell id="SYQy1KJUXBrkszPhO71--99" value="LayerCtrl_proc" style="whiteSpace=wrap;html=1;aspect=fixed;fontSize=12;" parent="1" vertex="1">
          <mxGeometry x="470" y="160" width="100" height="100" as="geometry" />
        </mxCell>
        <mxCell id="SYQy1KJUXBrkszPhO71--104" style="rounded=0;orthogonalLoop=1;jettySize=auto;html=1;exitX=0.088;exitY=-0.002;exitDx=0;exitDy=0;entryX=0;entryY=0.5;entryDx=0;entryDy=0;exitPerimeter=0;" parent="1" source="SYQy1KJUXBrkszPhO71--67" target="SYQy1KJUXBrkszPhO71--90" edge="1">
          <mxGeometry relative="1" as="geometry">
            <mxPoint x="390" y="360" as="sourcePoint" />
            <mxPoint x="500" y="400" as="targetPoint" />
          </mxGeometry>
        </mxCell>
        <mxCell id="SYQy1KJUXBrkszPhO71--133" value="&lt;font color=&quot;#6059c2&quot;&gt;w1_in(3)&lt;/font&gt;" style="edgeLabel;html=1;align=center;verticalAlign=middle;resizable=0;points=[];fontSize=12;fontFamily=Helvetica;fontColor=default;" parent="SYQy1KJUXBrkszPhO71--104" vertex="1" connectable="0">
          <mxGeometry x="0.4824" y="-1" relative="1" as="geometry">
            <mxPoint x="7" y="3" as="offset" />
          </mxGeometry>
        </mxCell>
        <mxCell id="SYQy1KJUXBrkszPhO71--108" style="rounded=0;orthogonalLoop=1;jettySize=auto;html=1;exitX=0.959;exitY=-0.016;exitDx=0;exitDy=0;entryX=0;entryY=0.5;entryDx=0;entryDy=0;exitPerimeter=0;" parent="1" source="SYQy1KJUXBrkszPhO71--67" target="SYQy1KJUXBrkszPhO71--88" edge="1">
          <mxGeometry relative="1" as="geometry">
            <mxPoint x="390" y="475" as="sourcePoint" />
            <mxPoint x="490" y="530" as="targetPoint" />
          </mxGeometry>
        </mxCell>
        <mxCell id="SYQy1KJUXBrkszPhO71--132" value="&lt;font color=&quot;#139c64&quot;&gt;w1_in(2)&lt;/font&gt;" style="edgeLabel;html=1;align=center;verticalAlign=middle;resizable=0;points=[];fontSize=12;fontFamily=Helvetica;fontColor=default;" parent="SYQy1KJUXBrkszPhO71--108" vertex="1" connectable="0">
          <mxGeometry x="0.4287" relative="1" as="geometry">
            <mxPoint x="8" y="-17" as="offset" />
          </mxGeometry>
        </mxCell>
        <mxCell id="SYQy1KJUXBrkszPhO71--109" style="rounded=0;orthogonalLoop=1;jettySize=auto;html=1;exitX=0.964;exitY=-0.024;exitDx=0;exitDy=0;entryX=0;entryY=0.5;entryDx=0;entryDy=0;exitPerimeter=0;" parent="1" source="SYQy1KJUXBrkszPhO71--67" target="SYQy1KJUXBrkszPhO71--90" edge="1">
          <mxGeometry relative="1" as="geometry">
            <mxPoint x="391" y="599" as="sourcePoint" />
            <mxPoint x="490" y="400" as="targetPoint" />
          </mxGeometry>
        </mxCell>
        <mxCell id="SYQy1KJUXBrkszPhO71--112" value="Neuron Y" style="ellipse;whiteSpace=wrap;html=1;aspect=fixed;fillColor=#0B5C3B;fontColor=#ffffff;strokeColor=#2D7600;" parent="1" vertex="1">
          <mxGeometry x="790" y="410" width="80" height="80" as="geometry" />
        </mxCell>
        <mxCell id="SYQy1KJUXBrkszPhO71--113" value="" style="shape=flexArrow;endArrow=classic;html=1;fontSize=12;exitX=0.5;exitY=1;exitDx=0;exitDy=0;entryX=0.393;entryY=0.581;entryDx=0;entryDy=0;entryPerimeter=0;" parent="1" edge="1">
          <mxGeometry width="50" height="50" relative="1" as="geometry">
            <mxPoint x="829.76" y="250" as="sourcePoint" />
            <mxPoint x="829.8900000000001" y="340.0799999999999" as="targetPoint" />
          </mxGeometry>
        </mxCell>
        <mxCell id="SYQy1KJUXBrkszPhO71--114" value="rom_sigmoid" style="rounded=0;whiteSpace=wrap;html=1;direction=south;" parent="1" vertex="1">
          <mxGeometry x="900" y="320" width="90" height="270" as="geometry" />
        </mxCell>
        <mxCell id="SYQy1KJUXBrkszPhO71--116" style="edgeStyle=orthogonalEdgeStyle;rounded=0;orthogonalLoop=1;jettySize=auto;html=1;exitX=1;exitY=0.5;exitDx=0;exitDy=0;entryX=0.964;entryY=1.04;entryDx=0;entryDy=0;entryPerimeter=0;" parent="1" source="SYQy1KJUXBrkszPhO71--112" edge="1">
          <mxGeometry relative="1" as="geometry">
            <mxPoint x="896.4000000000001" y="450.27999999999975" as="targetPoint" />
          </mxGeometry>
        </mxCell>
        <mxCell id="SYQy1KJUXBrkszPhO71--117" value="SigmoidCtrl_proc" style="whiteSpace=wrap;html=1;aspect=fixed;fontSize=12;" parent="1" vertex="1">
          <mxGeometry x="900" y="160" width="100" height="100" as="geometry" />
        </mxCell>
        <mxCell id="SYQy1KJUXBrkszPhO71--119" value="LayerCtrl_proc" style="whiteSpace=wrap;html=1;aspect=fixed;fontSize=12;" parent="1" vertex="1">
          <mxGeometry x="780" y="160" width="100" height="100" as="geometry" />
        </mxCell>
        <mxCell id="SYQy1KJUXBrkszPhO71--134" value="&lt;font color=&quot;#6059c2&quot;&gt;w1_in(4)&lt;/font&gt;" style="edgeLabel;html=1;align=center;verticalAlign=middle;resizable=0;points=[];fontSize=12;fontFamily=Helvetica;fontColor=default;" parent="1" vertex="1" connectable="0">
          <mxGeometry x="400.0013705533529" y="479.99545624141376" as="geometry" />
        </mxCell>
        <mxCell id="SYQy1KJUXBrkszPhO71--135" value="&lt;font color=&quot;#6059c2&quot;&gt;w1_in(5)&lt;/font&gt;" style="edgeLabel;html=1;align=center;verticalAlign=middle;resizable=0;points=[];fontSize=12;fontFamily=Helvetica;fontColor=default;" parent="1" vertex="1" connectable="0">
          <mxGeometry x="450.0013705533529" y="539.9954562414138" as="geometry" />
        </mxCell>
        <mxCell id="SYQy1KJUXBrkszPhO71--137" value="&lt;font color=&quot;#139c64&quot;&gt;w2_in(1)&lt;/font&gt;" style="edgeLabel;html=1;align=center;verticalAlign=middle;resizable=0;points=[];fontSize=12;fontFamily=Helvetica;fontColor=default;" parent="1" vertex="1" connectable="0">
          <mxGeometry x="739.938260801777" y="489.996113406007" as="geometry">
            <mxPoint x="-5" y="-3" as="offset" />
          </mxGeometry>
        </mxCell>
        <mxCell id="SYQy1KJUXBrkszPhO71--138" value="&lt;font color=&quot;#000000&quot;&gt;Layer2&lt;/font&gt;" style="text;html=1;align=center;verticalAlign=middle;resizable=0;points=[];autosize=1;fontStyle=1" parent="1" vertex="1">
          <mxGeometry x="700" y="120" width="60" height="30" as="geometry" />
        </mxCell>
        <mxCell id="SYQy1KJUXBrkszPhO71--139" value="" style="shape=flexArrow;endArrow=classic;html=1;rounded=0;fontFamily=Helvetica;fontSize=12;fontColor=default;" parent="1" edge="1">
          <mxGeometry width="50" height="50" relative="1" as="geometry">
            <mxPoint x="30" y="400" as="sourcePoint" />
            <mxPoint x="110" y="399.66" as="targetPoint" />
          </mxGeometry>
        </mxCell>
        <mxCell id="SYQy1KJUXBrkszPhO71--140" value="x0_in(0)" style="edgeLabel;html=1;align=center;verticalAlign=middle;resizable=0;points=[];fontSize=12;fontFamily=Helvetica;fontColor=default;" parent="SYQy1KJUXBrkszPhO71--139" vertex="1" connectable="0">
          <mxGeometry x="-0.5402" y="2" relative="1" as="geometry">
            <mxPoint as="offset" />
          </mxGeometry>
        </mxCell>
        <mxCell id="SYQy1KJUXBrkszPhO71--141" value="" style="shape=flexArrow;endArrow=classic;html=1;rounded=0;fontFamily=Helvetica;fontSize=12;fontColor=default;" parent="1" edge="1">
          <mxGeometry width="50" height="50" relative="1" as="geometry">
            <mxPoint x="30" y="530" as="sourcePoint" />
            <mxPoint x="110" y="530" as="targetPoint" />
          </mxGeometry>
        </mxCell>
        <mxCell id="SYQy1KJUXBrkszPhO71--142" value="x0_in(1)" style="edgeLabel;html=1;align=center;verticalAlign=middle;resizable=0;points=[];fontSize=12;fontFamily=Helvetica;fontColor=default;" parent="SYQy1KJUXBrkszPhO71--141" vertex="1" connectable="0">
          <mxGeometry x="-0.5402" y="2" relative="1" as="geometry">
            <mxPoint as="offset" />
          </mxGeometry>
        </mxCell>
        <mxCell id="SYQy1KJUXBrkszPhO71--146" value="NetworkResult" style="edgeLabel;html=1;align=center;verticalAlign=middle;resizable=0;points=[];fontSize=12;fontFamily=Helvetica;fontColor=default;" parent="1" vertex="1" connectable="0">
          <mxGeometry x="1119.996470588235" y="450" as="geometry">
            <mxPoint x="-5" as="offset" />
          </mxGeometry>
        </mxCell>
      </root>
    </mxGraphModel>
  </diagram>
  <diagram id="NtW9F5Fq1NwJIswvDeC5" name="Neural_network_Testing_scheme">
    <mxGraphModel dx="1378" dy="963" grid="1" gridSize="10" guides="1" tooltips="1" connect="1" arrows="1" fold="1" page="1" pageScale="1" pageWidth="291" pageHeight="413" math="0" shadow="0">
      <root>
        <mxCell id="0" />
        <mxCell id="1" parent="0" />
        <mxCell id="wf-1zj2G5yvE4zeoHmCa-7" style="edgeStyle=orthogonalEdgeStyle;rounded=0;orthogonalLoop=1;jettySize=auto;html=1;exitX=0.25;exitY=1;exitDx=0;exitDy=0;fontFamily=Helvetica;fontSize=12;fontColor=default;entryX=0;entryY=0.75;entryDx=0;entryDy=0;" parent="1" source="wf-1zj2G5yvE4zeoHmCa-2" target="wf-1zj2G5yvE4zeoHmCa-5" edge="1">
          <mxGeometry relative="1" as="geometry" />
        </mxCell>
        <mxCell id="wf-1zj2G5yvE4zeoHmCa-2" value="&lt;font style=&quot;font-size: 14px;&quot;&gt;Control Unit&amp;nbsp;&lt;br&gt;(PC)&lt;/font&gt;" style="whiteSpace=wrap;html=1;aspect=fixed;labelBackgroundColor=default;align=center;verticalAlign=middle;fontFamily=Helvetica;fontSize=12;fontColor=default;fillColor=none;gradientColor=none;strokeWidth=3;" parent="1" vertex="1">
          <mxGeometry x="91.5" y="10" width="109" height="109" as="geometry" />
        </mxCell>
        <mxCell id="wf-1zj2G5yvE4zeoHmCa-8" style="edgeStyle=orthogonalEdgeStyle;rounded=0;orthogonalLoop=1;jettySize=auto;html=1;exitX=1;exitY=0.75;exitDx=0;exitDy=0;entryX=0.319;entryY=0.006;entryDx=0;entryDy=0;fontFamily=Helvetica;fontSize=12;fontColor=default;entryPerimeter=0;" parent="1" source="wf-1zj2G5yvE4zeoHmCa-5" target="wf-1zj2G5yvE4zeoHmCa-6" edge="1">
          <mxGeometry relative="1" as="geometry" />
        </mxCell>
        <mxCell id="g82jCxTADxGG2GlwoEsb-2" style="edgeStyle=orthogonalEdgeStyle;rounded=0;orthogonalLoop=1;jettySize=auto;html=1;exitX=0;exitY=0.25;exitDx=0;exitDy=0;entryX=0.75;entryY=1;entryDx=0;entryDy=0;fontFamily=Helvetica;fontSize=12;fontColor=default;" parent="1" source="wf-1zj2G5yvE4zeoHmCa-5" target="wf-1zj2G5yvE4zeoHmCa-2" edge="1">
          <mxGeometry relative="1" as="geometry" />
        </mxCell>
        <mxCell id="wf-1zj2G5yvE4zeoHmCa-5" value="&lt;font style=&quot;font-size: 14px;&quot;&gt;USB to UART&lt;br&gt;(CP2102)&lt;/font&gt;" style="rounded=1;whiteSpace=wrap;html=1;labelBackgroundColor=default;align=center;verticalAlign=middle;fontFamily=Helvetica;fontSize=12;fontColor=default;fillColor=none;gradientColor=none;direction=south;strokeWidth=3;" parent="1" vertex="1">
          <mxGeometry x="91.5" y="170" width="109" height="80" as="geometry" />
        </mxCell>
        <mxCell id="g82jCxTADxGG2GlwoEsb-1" style="edgeStyle=orthogonalEdgeStyle;rounded=0;orthogonalLoop=1;jettySize=auto;html=1;exitX=0.677;exitY=0.006;exitDx=0;exitDy=0;entryX=1;entryY=0.25;entryDx=0;entryDy=0;fontFamily=Helvetica;fontSize=12;fontColor=default;exitPerimeter=0;" parent="1" source="wf-1zj2G5yvE4zeoHmCa-6" target="wf-1zj2G5yvE4zeoHmCa-5" edge="1">
          <mxGeometry relative="1" as="geometry" />
        </mxCell>
        <mxCell id="wf-1zj2G5yvE4zeoHmCa-6" value="&lt;font style=&quot;font-size: 14px;&quot;&gt;FPGA&lt;br&gt;(TerasIC De0-CV)&lt;/font&gt;" style="whiteSpace=wrap;html=1;aspect=fixed;labelBackgroundColor=default;align=center;verticalAlign=middle;fontFamily=Helvetica;fontSize=12;fontColor=default;fillColor=none;gradientColor=none;strokeWidth=3;" parent="1" vertex="1">
          <mxGeometry x="83.5" y="280" width="122.5" height="122.5" as="geometry" />
        </mxCell>
        <mxCell id="wf-1zj2G5yvE4zeoHmCa-10" value="&lt;font style=&quot;font-size: 11px;&quot;&gt;Network_Controller.vhd&lt;br&gt;&amp;nbsp;(top entity)&lt;/font&gt;" style="text;html=1;align=center;verticalAlign=middle;resizable=0;points=[];autosize=1;strokeColor=none;fillColor=none;fontSize=12;fontFamily=Helvetica;fontColor=default;" parent="1" vertex="1">
          <mxGeometry x="76" y="360" width="140" height="40" as="geometry" />
        </mxCell>
        <mxCell id="wf-1zj2G5yvE4zeoHmCa-11" value="&lt;font style=&quot;font-size: 11px;&quot;&gt;Network_tester.py&lt;/font&gt;" style="text;html=1;align=center;verticalAlign=middle;resizable=0;points=[];autosize=1;strokeColor=none;fillColor=none;fontSize=12;fontFamily=Helvetica;fontColor=default;" parent="1" vertex="1">
          <mxGeometry x="91" y="82" width="110" height="30" as="geometry" />
        </mxCell>
      </root>
    </mxGraphModel>
  </diagram>
</mxfile>
